<?xml version="1.0" encoding="UTF-8"?>
<svg id="Layer_1" data-name="Layer 1" xmlns="http://www.w3.org/2000/svg" viewBox="0 0 250 250">
  <defs>
    <style>
      .cls-1 {
        stroke-width: 0px;
      }
    </style>
  </defs>
  <path class="cls-1" d="m206.82,30.93c-12.92-14.74-32.34-19.82-51.25-20.66-16.43-.73-34.08.9-49.55,6.72-36.15,13.61-60.98,51.94-66.5,89.17-5.99,40.42,2.36,82.93,36.02,109.21,16.16,12.62,36.16,22.44,57.07,22.54,20.08.09,39.69-8.62,51.81-24.78,7.88-10.51,11.34-23.79,12.96-36.63s2.17-28.05-7.06-37.94c-7.52-8.05-19.08-8.98-29.42-8.44-8.68.45-18.41,1.07-26.56,4.38-7.5,3.04-12.8,9.99-10.48,18.45,2.02,7.33,10.8,13.27,18.45,10.48,3.89-1.42,7.86-2.55,11.91-3.43,2.3-.5,4.62-.92,6.95-1.27-1.63.25.14-.02.78-.09,1.34-.14,2.68-.27,4.02-.38,4.5-.36,9.02-.48,13.53-.31,2.03.08,4.05.23,6.06.41,4.61.42-1.5-.32,1.02.14,1.13.2,2.25.42,3.37.65-3.67-4.82-7.34-9.64-11.01-14.46-.8,13.36-1.36,26.69-2.45,40.03-1.1,13.47,1.19,28.23,2.78,40.29,1.02,7.75,6.16,15.4,15,15,7.25-.32,16.1-6.67,15-15-.42-3.16-.84-6.32-1.27-9.49.01.08-.67-5.09-.33-2.46-.42-3.22-.83-6.43-1.12-9.67-.56-6.22-.57-12.45-.06-18.68,1.09-13.34,1.65-26.67,2.45-40.03.37-6.2-4.89-13.16-11.01-14.46-20.57-4.37-43.83-2.94-63.6,4.28,2.66,9.64,5.32,19.29,7.98,28.93,2.32-.94,4.75-1.52,7.2-2.01,1.43-.28,2.86-.51,4.3-.73-3.2.49,1.56-.15,2.56-.24,3.09-.28,6.19-.47,9.29-.47,1.18,0,2.37.13,3.55.1s1.48.77-.92-.16c.27.1,2.59.8,2.76.69-1.83,1.26-4.54-6.24-3.27-2.38.03.09.52,2.47.26.91-.3-1.8.07,1.59.08,1.85.22,4.53.16,9.2-.49,13.69-.96,6.6-3.54,14.84-7.46,21.06-1.53,2.43-.61.79-.17.28-.6.7-1.21,1.39-1.86,2.05-.48.5-.98.97-1.48,1.44-.27.25-2.44,2.14-1.11,1.06,1.19-.98-.57.41-.69.49-.77.51-1.53,1.03-2.32,1.51-1.59.96-3.23,1.82-4.92,2.6,2.44-1.14-2.33.77-2.97.96-1.57.48-3.17.87-4.78,1.2-.69.14-1.39.27-2.08.39,2.67-.47.34-.04-.22-.01-1.89.09-3.76.23-5.65.19-.66-.01-6.03-.46-3.03-.05-1.69-.24-3.38-.6-5.04-1-3.78-.9-7.53-2.09-11.11-3.6,1.76.74-.69-.35-.84-.43-.97-.48-1.96-.94-2.92-1.43-1.7-.87-3.38-1.79-5.03-2.76s-3.28-1.98-4.88-3.04c-.91-.6-1.8-1.24-2.7-1.86-.25-.17-2.05-1.47-.88-.58-3.15-2.39-6.09-5.11-8.84-7.93-1.24-1.27-2.4-2.6-3.58-3.93-.13-.15-1.66-2.07-.54-.61-.64-.83-1.24-1.7-1.82-2.56-2.19-3.22-4.14-6.6-5.84-10.11-.34-.7-.67-1.4-.99-2.1.86,1.89-.18-.44-.28-.7-.73-1.94-1.43-3.88-2.04-5.86-1.16-3.72-2.07-7.52-2.78-11.35-.11-.62-.8-5.36-.52-3-.25-2.09-.43-4.19-.56-6.29-.5-7.95-.19-15.92.69-23.83.35-3.14.19-1.45.09-.76.15-1.05.32-2.1.5-3.15.3-1.77.62-3.54,1-5.29.79-3.67,1.81-7.29,3.02-10.84.66-1.93,1.37-3.86,2.15-5.75-.13.32-.7,1.6.01.02.43-.95.86-1.89,1.31-2.82,1.7-3.52,3.57-6.96,5.62-10.29,7.19-11.71,16.41-21.83,28.1-28.2.81-.44,1.65-.82,2.45-1.27,2.42-1.34-.76.19.76-.39,1.61-.61,3.24-1.17,4.9-1.66,4.03-1.2,8.15-2.13,12.29-2.89,1.01-.19,2.03-.35,3.04-.53.94-.16,2.18-.34.51-.12,2.1-.28,4.21-.49,6.32-.62,3.37-.22,6.77-.23,10.15-.2s6.79.16,10.17.48c.88.08,1.75.17,2.63.28-2.21-.27-.68-.08.64.16,1.77.32,3.53.7,5.28,1.17,1.98.52,3.91,1.16,5.82,1.87-2.48-.92,1.73.9,2.61,1.4.8.46,1.57.97,2.36,1.44.87.52,1.58,1.11.36.14,1.89,1.51,3.57,3.26,5.16,5.07,5.34,6.09,15.75,5.46,21.21,0,6.05-6.05,5.36-15.1,0-21.21h0Z"/>
</svg>