<?xml version="1.0" encoding="UTF-8"?>
<svg id="Layer_1" data-name="Layer 1" xmlns="http://www.w3.org/2000/svg" xmlns:xlink="http://www.w3.org/1999/xlink" viewBox="0 0 250 250">
  <defs>
    <style>
      .cls-1 {
        fill: url(#Aqua-4);
      }

      .cls-1, .cls-2, .cls-3, .cls-4, .cls-5, .cls-6 {
        stroke-width: 0px;
      }

      .cls-2 {
        fill: url(#Aqua-3);
      }

      .cls-3 {
        fill: url(#Aqua-7);
      }

      .cls-4 {
        fill: url(#Aqua-6);
      }

      .cls-5 {
        fill: url(#Aqua-2);
      }

      .cls-6 {
        fill: url(#Aqua-5);
      }

      .cls-7 {
        fill: url(#radial-gradient);
        stroke: url(#Aqua);
        stroke-miterlimit: 10;
      }
    </style>
    <radialGradient id="radial-gradient" cx="125" cy="125" fx="125" fy="125" r="124" gradientTransform="translate(0 0)" gradientUnits="userSpaceOnUse">
      <stop offset="0" stop-color="#045d5d"/>
      <stop offset="1" stop-color="#7fffd4"/>
    </radialGradient>
    <radialGradient id="Aqua" cx="125" cy="125" fx="125" fy="125" r="124.5" gradientTransform="translate(0 0)" gradientUnits="userSpaceOnUse">
      <stop offset="0" stop-color="#7fffd4"/>
      <stop offset="1" stop-color="#045d5d"/>
    </radialGradient>
    <radialGradient id="Aqua-2" data-name="Aqua" cx="162.77" cy="98.44" fx="162.77" fy="98.44" r="61.06" gradientTransform="matrix(1,0,0,1,0,0)" xlink:href="#Aqua"/>
    <radialGradient id="Aqua-3" data-name="Aqua" cx="64.25" cy="189.59" fx="64.25" fy="189.59" r="45.25" gradientTransform="matrix(1,0,0,1,0,0)" xlink:href="#Aqua"/>
    <radialGradient id="Aqua-4" data-name="Aqua" cx="75.89" cy="77.09" fx="75.89" fy="77.09" r="42.02" gradientTransform="matrix(1,0,0,1,0,0)" xlink:href="#Aqua"/>
    <radialGradient id="Aqua-5" data-name="Aqua" cx="87.75" cy="135.08" fx="87.75" fy="135.08" r="74.01" gradientTransform="matrix(1,0,0,1,0,0)" xlink:href="#Aqua"/>
    <radialGradient id="Aqua-6" data-name="Aqua" cx="126.9" cy="144.98" fx="126.9" fy="144.98" r="103.3" gradientTransform="matrix(1,0,0,1,0,0)" xlink:href="#Aqua"/>
    <radialGradient id="Aqua-7" data-name="Aqua" cx="142.84" cy="93.75" fx="142.84" fy="93.75" r="84.63" gradientTransform="matrix(1,0,0,1,0,0)" xlink:href="#Aqua"/>
  </defs>
  <rect class="cls-7" x="1" y="1" width="248.5" height="248.5"/>
  <path class="cls-5" d="m223.13,30.89c-9.68-10.86-23.89-14.83-37.97-15.58-11.94-.64-24.82.59-36.07,4.77-26.62,9.87-45.12,37.67-49.16,65.12-4.48,30.37,2.32,61.18,27.61,80.63,11.81,9.09,26.74,15.98,41.93,15.73s30.23-7.3,39.41-20.01c5.69-7.88,7.98-17.86,9.16-27.33s1.06-21.26-5.98-28.73c-6.2-6.58-15.17-8.01-23.82-7.57-6.44.33-13.56.81-19.62,3.19-7.53,2.96-12.79,10.05-10.48,18.45,2.02,7.36,10.79,13.23,18.45,10.48,2.7-.97,5.44-1.77,8.25-2.37,1.5-.33,3.02-.61,4.54-.84-2.55.38,2.27-.19,2.28-.19,3.11-.25,6.25-.33,9.37-.21,1.24.05,2.48.14,3.72.25,1.12.12.97.09-.44-.09.89.14,1.78.31,2.66.51-3.67-4.82-7.34-9.64-11.01-14.46-.54,9.2-.93,18.37-1.68,27.55-.76,9.3.8,19.44,1.91,27.83,1.03,7.75,6.16,15.4,15,15,7.24-.32,16.1-6.67,15-15-.3-2.27-.61-4.54-.91-6.82-.05-.36-.53-4.01-.24-1.82-.27-2.09-.53-4.19-.72-6.29-.38-4.3-.39-8.6-.04-12.91.75-9.18,1.14-18.35,1.68-27.55.37-6.17-4.89-13.19-11.01-14.46-15.06-3.12-31.82-2.27-46.33,2.95,2.66,9.64,5.32,19.29,7.98,28.93,1.55-.61,3.13-1.02,4.76-1.35.05-.01,3.98-.69,1.72-.34s1.95-.2,1.93-.19c2.07-.19,4.15-.32,6.23-.33.69,0,1.4.06,2.09.04,2.29-.07-.82-.27-1.65-.71l-3.4-4.44c.42,1.79.48,1.97.18.52.12,1.19.1,2.48.09,3.67-.02,2.84-.18,5.02-.59,6.94-.56,2.6-1.18,5.2-2.13,7.69s1.6-2.31-.83,1.7c-.11.18-2.83,3.89-1,1.77-.76.88-1.6,1.68-2.45,2.47-1.78,1.65,2.77-1.48-.84.61-.8.46-1.63.93-2.42,1.41-3.32,2.02,2.16-.34-1.61.69-.92.25-1.8.56-2.73.79.15-.04-4.36.76-2.21.5s-2.45.07-2.27.07c-1.42.02-2.85-.04-4.27-.17,2.9.27-.27-.14-1.01-.3-1.24-.29-2.46-.62-3.68-1-.99-.31-1.98-.66-2.96-1.02,2.37.89-2.42-1.13-2.29-1.06-2.19-1.09-4.32-2.31-6.39-3.63-3.07-1.96-2.83-1.74-5.36-3.97-7.56-6.67-11.05-12.96-13.4-22.2-.32-1.26-.6-2.53-.85-3.81-.11-.57-.64-3.85-.31-1.43-.32-2.34-.45-4.73-.52-7.09s-.05-4.77.06-7.15c.08-1.6.24-3.18.34-4.77.21-3.04-.26.93.27-2.34.78-4.73,1.89-9.33,3.55-13.83.19-.52,1.47-3.46.51-1.35.42-.93.86-1.86,1.32-2.78,1.38-2.76,2.93-5.45,4.62-8.03,4.59-6.99,10.18-12.23,17.87-16.52,2.48-1.38.73-.32.1-.09,1.41-.51,2.83-.96,4.28-1.36,2.59-.71,5.23-1.28,7.88-1.75.98-.17,1.96-.34,2.95-.47-3.02.4,1.64-.09,2.22-.12,2.14-.12,4.29-.14,6.43-.12,2.53.02,5.02.18,7.54.36.72.05,2.75.59-.07-.03,1.3.28,2.62.48,3.92.81s2.58.74,3.85,1.17c-2.44-.84.54.28,1.33.73s1.58.93,2.32,1.46c-2.27-1.61,1.76,1.92,2.2,2.42,5.39,6.05,15.72,5.5,21.21,0,6.01-6.01,5.41-15.15,0-21.21h0Z"/>
  <path class="cls-2" d="m61.8,135.75c-18.48-3.28-38.81,10.86-46.72,27.37-8.35,17.43-5.03,38.83,5.15,54.74,10.53,16.45,27.55,27.89,47.67,26.2,9.94-.83,19.82-3.79,27.14-10.89,7.53-7.31,11.11-17.7,9.21-28.04s-10.31-26.19-22.39-26.51c-9.13-.24-18.42,9.08-22.97,16.24-6.95,10.93,10.19,20.76,17.27,10.09,3.73-5.62,9.26-10.18,15.31-13.1l-13.68-3.59c7.33,10.97,14.25,21.48,23.55,30.9,9.06,9.17,23.2-4.97,14.14-14.14-4.01-4.07-7.88-7.7-10.76-12.3-3.09-4.94-6.43-9.7-9.67-14.55s-8.56-6.07-13.68-3.59c-9.11,4.4-16.92,11.9-22.48,20.28l17.27,10.09c.7-1.1,3.64-4.09,5.78-5.72-.46.31-.25.16.63-.45,2.1-1.09.78-1.45-3.97-1.08.25,1.11,2.66,3.43,3.27,4.47,3.17,5.43,4.37,10.77.06,15.82-8.85,10.37-27.44,7.1-36.51-.91-10.38-9.16-16.78-23.59-14.72-37.5.99-6.73,4.28-11.39,9.11-16.03,4.01-3.86,10.67-9.58,16.69-8.51,5.31.94,10.78-1.44,12.3-6.98,1.33-4.83-1.64-11.35-6.98-12.3h0Z"/>
  <path class="cls-1" d="m125.73,102.79c10.51-14.59,4.75-38.98-5.55-52.29-11.12-14.37-31.11-21-48.8-19.37-20.5,1.89-38.68,11.71-46.79,31.36-7.49,18.14-3.93,42.08,16.71,49.46,10.31,3.69,29.38,3.37,35.63-7.32,4.6-7.87.48-20.74-3.99-27.9-6.8-10.89-23.91-1.01-17.27,10.09,3.43,5.74,5.51,12.49,5.54,19.2l7.34-9.64c-5.6.8-10.78,1.61-16.24,2.28-6.76.83-12.88,2.88-19.29,5.09-5.1,1.76-8.48,6.85-6.98,12.3,1.36,4.96,7.17,8.76,12.3,6.98,5.64-1.95,11.15-4.03,17.1-4.72s12.28-1.77,18.43-2.65c4.25-.61,7.36-5.66,7.34-9.64-.04-10.13-3.07-20.61-8.27-29.3-5.76,3.36-11.51,6.73-17.27,10.09,1.09,1.74,1.58,3.24,2.29,5.7.35,1.19.69,2.39.91,3.61.15.82.16.73.01-.28.35,1.24.27,1.6-.23,1.07l2.57-4.41c-1.51,1.89-7.64,1.46-9.98,1.22-2.61-.27-4.79-.89-6.73-2.74-4.26-4.07-4.52-10.2-3.22-15.6,3.34-13.81,13.69-21.62,27.37-23.91,11.77-1.97,25.19.56,33.94,9.17,7.06,6.95,12.04,23.45,5.85,32.04-3.16,4.38-.76,11.14,3.59,13.68,5.04,2.95,10.51.81,13.68-3.59h0Z"/>
  <path class="cls-6" d="m4.85,115.62c-7.39,15.82-4.43,31.79,2.16,47.31,5.21,12.29,12.65,24.91,23.21,33.35,22.52,18,54.75,21.14,81.74,12.96,28.61-8.68,53.43-28.25,60.55-58.36,3.52-14.87,3.74-31.09-2.52-45.25-5.73-12.95-17.61-24.28-31.77-27.19-9.49-1.96-19.6-.83-28.84,1.88-8.22,2.41-18.61,6.18-23.05,14.11s-1.15,17.06,2.57,24.7c2.93,6.02,6.5,12.32,11.25,17.11,9.1,9.17,22.91-4.74,14.14-14.14s-14.85-21.4-17.33-33.74l-6.98,12.3c10.03-3.6,20.02-7.25,30.09-10.73s19.7-9.26,29.15-14.87c11.06-6.56,1.01-23.86-10.09-17.27-8.37,4.97-16.52,10.27-25.81,13.33s-19.1,6.81-28.66,10.24c-5.36,1.92-8.12,6.65-6.98,12.3,3.14,15.6,11.66,30.97,22.47,42.57l14.14-14.14c-1.91-1.92-4.38-5.98-6.31-9.55-1.01-1.87-2.03-3.78-2.86-5.74.54,1.29-.55-1.54-.53-1.47-.26-.78-.47-1.58-.63-2.38-.62,1.53-.69,1.99-.21,1.37,3.69-2.89,8.99-4.3,13.44-5.42,5.91-1.48,12.52-2.39,18.44-.49,20.97,6.73,21.68,33.48,16.57,50.93-11.92,40.7-70.03,55.57-104.32,35.02-9.39-5.62-15.77-15.08-20.57-24.73-4.89-9.84-10.22-23.19-5.21-33.93,2.28-4.89,1.37-10.78-3.59-13.68-4.33-2.53-11.39-1.33-13.68,3.59h0Z"/>
  <path class="cls-4" d="m67.43,40.7c-17.82,4.02-30.83,17.24-40.16,32.3-8.87,14.32-15.85,30.57-18.6,47.25-6.03,36.58,15.06,76.43,43.31,98.73,16.41,12.95,35.09,23.61,55.66,28.18,20.61,4.58,41.13,2.53,60.45-5.86,17.66-7.66,35.12-20.3,44.68-37.37s11.63-38.64,2.75-56.6c-5.26-10.65-14.57-19.26-24.03-26.18s-22.48-15.13-34.47-11.8c-9.75,2.71-15.08,12.4-19.02,20.96s-7.38,17.01-8.41,26.23c-1.24,11.09,18,13.81,19.64,2.66,2.53-17.12,9.78-35.33,21.1-48.57l-12.12,1.56c12.3,7.66,24.61,15.24,36.83,23.02,12.15,7.73,25.78,12.39,39.16,17.51,5.05,1.93,10.97-2.14,12.3-6.98,1.55-5.64-1.92-10.36-6.98-12.3-12.47-4.77-24.32-8.94-35.58-16.27s-23.74-14.83-35.64-22.25c-3.51-2.18-9.33-1.71-12.12,1.56-13.53,15.84-23.2,36.76-26.24,57.4,6.55.89,13.1,1.77,19.64,2.66-.28,2.49.37-1.38.5-1.9.33-1.31.73-2.6,1.14-3.88.94-2.9,2.01-5.77,3.23-8.57,1.55-3.57,4.22-11.93,8.14-13.71-.21.09-1.35.2.19,0,.75-.09,2.79.75,3.31.95,1.58.6,3.08,1.44,4.57,2.23,3.84,2.04,7.59,4.35,11.05,6.99,6.36,4.86,12.54,10.89,16.19,18.09,6.39,12.57,3.29,28.19-3.96,39.66-7.97,12.61-22.22,21.94-35.79,27.53-31.65,13.02-65.03,1.43-91.06-18.34-22.35-16.97-40.3-46.07-39.53-74.83.4-14.88,7.02-30.41,14.44-43.44,7.06-12.4,16.15-24.07,30.72-27.35,12.55-2.83,7.24-22.12-5.32-19.29h0Z"/>
  <path class="cls-3" d="m240.22,124.65c9.57-17.51,7.69-37.13,1.23-55.35-5.41-15.26-13.36-31.3-25.47-42.4C191.03,4.05,153.76-2.06,121.51,4.92c-35.14,7.61-65.99,29.22-77.55,64.26-5.42,16.42-7.4,36.31-1.63,52.91,6.08,17.5,19,32.17,36.88,38.03,11.15,3.65,23.77,2.71,35.08.39,11.33-2.32,24.79-6.81,31.11-17.22,6.23-10.26,2.21-21.95-2.09-31.96-3.22-7.5-6.96-14.8-12.41-20.95s-15.72-5.49-21.21,0c-6.17,6.17-5.2,14.96,0,21.21,1.07,1.32,1.16,1.4.26.24.58.78,1.15,1.57,1.7,2.37,1.15,1.67,2.24,3.38,3.27,5.13,2.03,3.42,3.85,6.96,5.48,10.58.42.94.44.98.07.1.4.98.79,1.97,1.16,2.96.73,1.95,1.39,3.91,1.99,5.9,1.11,3.68,1.94,7.42,2.46,11.23,3.49-6.15,6.98-12.3,10.48-18.45-11.58,3.39-23.08,6.91-34.71,10.11-12.67,3.49-24.18,9.76-35.78,15.75-7.2,3.71-9.32,13.79-5.38,20.52,4.27,7.3,13.3,9.11,20.52,5.38,5.64-2.91,11.23-5.95,16.98-8.64.33-.15,4.32-1.83,1.18-.57,1.22-.49,2.44-.96,3.67-1.4,2.73-.96,5.5-1.79,8.29-2.52,11.17-2.92,22.12-6.46,33.2-9.71,8.53-2.5,11.6-10.28,10.48-18.45-2.59-18.81-12.06-37.26-24.1-51.75-7.07,7.07-14.14,14.14-21.21,21.21,1.59,1.79-1.54-2.55-.04-.05.72,1.19,1.49,2.33,2.18,3.54,1.45,2.51,2.76,5.11,3.97,7.74.43.92,1.54,3.72.58,1.25.49,1.27.99,2.53,1.41,3.82.3.9.55,1.81.8,2.73.33,1.22,0-.62.02-.6l.03,1.5.86-3.37c.34-1.59,2.31-1.91-.64-.37-.48.25-1,.48-2.73,1.09-3.79,1.34-7.68,2.37-11.63,3.07-5.91,1.05-12.57,1.05-18.63-1.2-1.64-.61.14.02.38.14-.62-.32-1.24-.63-1.85-.97-1.22-.68-2.39-1.43-3.53-2.24-1.4-.99.07.02.27.2-.53-.46-1.05-.93-1.57-1.41-1.37-1.29-2.66-2.66-3.86-4.12-1.09-1.33.03-.01.19.22-.4-.59-.8-1.17-1.19-1.78-.77-1.2-1.48-2.44-2.14-3.7-.33-.63-.64-1.27-.95-1.92.13.26.74,1.92.13.3-.67-1.78-1.25-3.59-1.71-5.43-.16-.66-.85-4.03-.68-2.93.26,1.57-.09-.84-.1-.95-.06-.76-.12-1.51-.16-2.27-.21-3.65-.11-7.32.22-10.96.07-.8.14-1.6.25-2.4-.05.36-.26,1.74.04-.01.28-1.6.58-3.19.93-4.78.82-3.67,1.86-7.29,3.13-10.83.27-.74.54-1.49.83-2.22-.12.32-.69,1.56,0,0s1.51-3.21,2.36-4.77c1.23-2.25,3.86-6.32,4.54-7.21-.41.53,1.62-1.91,2.13-2.49,1.15-1.29,2.34-2.53,3.58-3.73,1.06-1.03,2.15-2.03,3.26-2.99.56-.48,1.13-.95,1.7-1.42,1.91-1.57-1.53,1.08.47-.36,5.26-3.79,10.87-6.98,16.77-9.65,1.57-.71.18-.1-.12.03.93-.39,1.87-.75,2.81-1.1,1.42-.53,2.85-1.04,4.28-1.52,3.36-1.12,6.78-2.09,10.22-2.91,2.96-.71,5.93-1.27,8.92-1.83s-1.25.02,1.66-.26c1.89-.18,3.78-.33,5.67-.41,2.9-.11,5.81-.08,8.7.07,1.47.08,2.93.23,4.4.34.44.03,2.95.34.41,0,.98.13,1.95.29,2.93.46,6.33,1.09,12.42,2.87,18.46,5.01,2.56.91-.69-.44,1.74.71,1.29.61,2.57,1.21,3.84,1.87,2.89,1.5,5.59,3.22,8.3,5,.13.09,1.95,1.4.65.43s.87.72,1.08.91c1.31,1.15,2.59,2.31,3.8,3.56,1.03,1.06,2,2.17,2.94,3.32-1.71-2.11.86,1.31,1.34,2.01,2.16,3.2,4.15,6.52,5.99,9.92.83,1.54,1.64,3.1,2.4,4.68.31.64.6,1.29.91,1.93-.58-1.23-.48-1.26,0,.01,2.55,6.8,4.96,13.66,6.17,20.85-.36-2.12.17,2.25.21,3,.08,1.84.05,3.67-.08,5.51.05-.65.56-2.48-.11.73-.22,1.05-.53,2.08-.77,3.12.03-.15-.76,2.39-.35,1.29.2-.54-1.31,2.58-1.41,2.75-3.89,7.11-1.75,16.35,5.38,20.52s16.62,1.75,20.52-5.38h0Z"/>
</svg>